<svg width="541" height="428" viewBox="0 0 541 428" fill="none" xmlns="http://www.w3.org/2000/svg">
<g opacity="0.6" filter="url(#filter0_f)">
<path d="M230.159 174.511C252.095 161.927 287.659 161.927 309.595 174.511L454.103 257.411C476.039 269.995 476.039 290.397 454.103 302.981L309.595 385.88C287.659 398.464 252.095 398.464 230.159 385.88L85.6509 302.981C63.7153 290.397 63.7153 269.995 85.6509 257.411L230.159 174.511Z" fill="url(#paint0_linear)"/>
</g>
<g filter="url(#filter1_i)">
<rect width="312.34" height="312.34" rx="20" transform="matrix(0.866044 -0.499967 0.866044 0.499967 0 235.678)" fill="white" fill-opacity="0.83"/>
</g>
<g opacity="0.6" filter="url(#filter2_f)">
<path d="M250.079 193.673C261.013 187.415 278.739 187.415 289.673 193.673L361.7 234.896C372.634 241.153 372.634 251.299 361.7 257.556L289.673 298.78C278.739 305.037 261.013 305.037 250.079 298.78L178.052 257.556C167.118 251.299 167.118 241.153 178.052 234.896L250.079 193.673Z" fill="url(#paint1_linear)"/>
</g>
<path d="M158.531 64.4205C158.531 59.8931 161.545 55.3656 167.573 51.9113L248.679 5.43539C260.735 -1.47325 280.282 -1.47325 292.338 5.43539L373.443 51.9113C379.472 55.3661 382.486 59.8941 382.485 64.4221V214.291C382.485 218.819 379.471 223.346 373.443 226.801L292.338 273.277C280.282 280.185 260.735 280.185 248.679 273.277L167.573 226.801C161.545 223.346 158.531 218.818 158.531 214.29L158.531 64.4205Z" fill="url(#paint2_linear)"/>
<path d="M167.573 205.263C155.517 198.354 155.517 187.153 167.573 180.244L248.679 133.768C260.735 126.86 280.282 126.86 292.338 133.768L373.443 180.244C385.499 187.153 385.499 198.354 373.443 205.263L292.338 251.739C280.282 258.647 260.735 258.647 248.679 251.739L167.573 205.263Z" fill="url(#paint3_linear)"/>
<path d="M167.573 201.488C155.517 194.58 155.517 183.379 167.573 176.47L248.679 129.994C260.735 123.085 280.282 123.085 292.338 129.994L373.443 176.47C385.499 183.379 385.499 194.58 373.443 201.488L292.338 247.964C280.282 254.873 260.735 254.873 248.679 247.964L167.573 201.488Z" fill="url(#paint4_linear)"/>
<rect x="-0.432984" y="0.249984" width="6.28038" height="6.28038" rx="3.14019" transform="matrix(3.7675e-05 1 -0.866007 -0.500033 194.307 144.263)" fill="#C9CEDD" stroke="#F1F3F7"/>
<rect x="-0.432984" y="0.249984" width="6.28038" height="6.28038" rx="3.14019" transform="matrix(3.7675e-05 1 -0.866007 -0.500033 244.737 173.383)" fill="#C9CEDD" stroke="#F1F3F7"/>
<rect x="-0.432984" y="0.249984" width="6.28038" height="6.28038" rx="3.14019" transform="matrix(3.7675e-05 1 -0.866007 -0.500033 219.522 158.822)" fill="#C9CEDD" stroke="#F1F3F7"/>
<rect x="-0.432984" y="0.249984" width="6.28038" height="6.28038" rx="3.14019" transform="matrix(3.7675e-05 1 -0.866007 -0.500033 181.69 136.983)" fill="#C9CEDD" stroke="#F1F3F7"/>
<rect x="-0.432984" y="0.249984" width="6.28038" height="6.28038" rx="3.14019" transform="matrix(3.7675e-05 1 -0.866007 -0.500033 232.123 166.102)" fill="#C9CEDD" stroke="#F1F3F7"/>
<rect x="-0.432984" y="0.249984" width="6.28038" height="6.28038" rx="3.14019" transform="matrix(3.7675e-05 1 -0.866007 -0.500033 206.909 151.543)" fill="#C9CEDD" stroke="#F1F3F7"/>
<rect x="-0.432984" y="0.249984" width="6.28038" height="6.28038" rx="3.14019" transform="matrix(3.7675e-05 1 -0.866007 -0.500033 194.295 158.834)" fill="#C9CEDD" stroke="#F1F3F7"/>
<rect x="-0.432984" y="0.249984" width="6.28038" height="6.28038" rx="3.14019" transform="matrix(3.7675e-05 1 -0.866007 -0.500033 244.737 187.952)" fill="#C9CEDD" stroke="#F1F3F7"/>
<rect x="-0.432984" y="0.249984" width="6.28038" height="6.28038" rx="3.14019" transform="matrix(3.7675e-05 1 -0.866007 -0.500033 219.51 173.394)" fill="#C9CEDD" stroke="#F1F3F7"/>
<rect x="-0.432984" y="0.249984" width="6.28038" height="6.28038" rx="3.14019" transform="matrix(3.7675e-05 1 -0.866007 -0.500033 181.682 151.555)" fill="#C9CEDD" stroke="#F1F3F7"/>
<rect x="-0.432984" y="0.249984" width="6.28038" height="6.28038" rx="3.14019" transform="matrix(3.7675e-05 1 -0.866007 -0.500033 232.123 180.672)" fill="#5881FF" stroke="#F1F3F7"/>
<rect x="-0.432984" y="0.249984" width="6.28038" height="6.28038" rx="3.14019" transform="matrix(3.7675e-05 1 -0.866007 -0.500033 206.909 166.114)" fill="#C9CEDD" stroke="#F1F3F7"/>
<rect x="-0.432984" y="0.249984" width="6.28038" height="6.28038" rx="3.14019" transform="matrix(3.7675e-05 1 -0.866007 -0.500033 194.295 115.152)" fill="#C9CEDD" stroke="#F1F3F7"/>
<rect x="-0.432984" y="0.249984" width="6.28038" height="6.28038" rx="3.14019" transform="matrix(3.7675e-05 1 -0.866007 -0.500033 244.737 144.269)" fill="#C9CEDD" stroke="#F1F3F7"/>
<rect x="-0.432984" y="0.249984" width="6.28038" height="6.28038" rx="3.14019" transform="matrix(3.7675e-05 1 -0.866007 -0.500033 219.522 129.71)" fill="#C9CEDD" stroke="#F1F3F7"/>
<rect x="-0.432984" y="0.249984" width="6.28038" height="6.28038" rx="3.14019" transform="matrix(3.7675e-05 1 -0.866007 -0.500033 181.69 107.872)" fill="#C9CEDD" stroke="#F1F3F7"/>
<rect x="-0.432984" y="0.249984" width="6.28038" height="6.28038" rx="3.14019" transform="matrix(3.7675e-05 1 -0.866007 -0.500033 232.123 136.989)" fill="#C9CEDD" stroke="#F1F3F7"/>
<rect x="-0.432984" y="0.249984" width="6.28038" height="6.28038" rx="3.14019" transform="matrix(3.7675e-05 1 -0.866007 -0.500033 206.909 122.43)" fill="#C9CEDD" stroke="#F1F3F7"/>
<rect x="-0.432984" y="0.249984" width="6.28038" height="6.28038" rx="3.14019" transform="matrix(3.7675e-05 1 -0.866007 -0.500033 194.295 173.404)" fill="#5881FF" stroke="#F1F3F7"/>
<rect x="-0.432984" y="0.249984" width="6.28038" height="6.28038" rx="3.14019" transform="matrix(3.7675e-05 1 -0.866007 -0.500033 244.725 202.524)" fill="#C9CEDD" stroke="#F1F3F7"/>
<rect x="-0.432984" y="0.249984" width="6.28038" height="6.28038" rx="3.14019" transform="matrix(3.7675e-05 1 -0.866007 -0.500033 219.51 187.964)" fill="#C9CEDD" stroke="#F1F3F7"/>
<rect x="-0.432984" y="0.249984" width="6.28038" height="6.28038" rx="3.14019" transform="matrix(3.7675e-05 1 -0.866007 -0.500033 181.682 166.125)" fill="#C9CEDD" stroke="#F1F3F7"/>
<rect x="-0.432984" y="0.249984" width="6.28038" height="6.28038" rx="3.14019" transform="matrix(3.7675e-05 1 -0.866007 -0.500033 232.112 195.244)" fill="#C9CEDD" stroke="#F1F3F7"/>
<rect x="-0.432984" y="0.249984" width="6.28038" height="6.28038" rx="3.14019" transform="matrix(3.7675e-05 1 -0.866007 -0.500033 206.901 180.682)" fill="#C9CEDD" stroke="#F1F3F7"/>
<rect x="-0.432984" y="0.249984" width="6.28038" height="6.28038" rx="3.14019" transform="matrix(3.7675e-05 1 -0.866007 -0.500033 194.295 129.722)" fill="#C9CEDD" stroke="#F1F3F7"/>
<rect x="-0.432984" y="0.249984" width="6.28038" height="6.28038" rx="3.14019" transform="matrix(3.7675e-05 1 -0.866007 -0.500033 244.725 158.837)" fill="#C9CEDD" stroke="#F1F3F7"/>
<rect x="-0.432984" y="0.249984" width="6.28038" height="6.28038" rx="3.14019" transform="matrix(3.7675e-05 1 -0.866007 -0.500033 219.51 144.279)" fill="#5881FF" stroke="#F1F3F7"/>
<rect x="-0.432984" y="0.249984" width="6.28038" height="6.28038" rx="3.14019" transform="matrix(3.7675e-05 1 -0.866007 -0.500033 181.682 122.441)" fill="#C9CEDD" stroke="#F1F3F7"/>
<rect x="-0.432984" y="0.249984" width="6.28038" height="6.28038" rx="3.14019" transform="matrix(3.7675e-05 1 -0.866007 -0.500033 232.123 151.561)" fill="#C9CEDD" stroke="#F1F3F7"/>
<rect x="-0.432984" y="0.249984" width="6.28038" height="6.28038" rx="3.14019" transform="matrix(3.7675e-05 1 -0.866007 -0.500033 206.901 137)" fill="#C9CEDD" stroke="#F1F3F7"/>
<rect x="-0.432984" y="0.249984" width="6.28038" height="6.28038" rx="3.14019" transform="matrix(3.7675e-05 1 -0.866007 -0.500033 194.295 187.946)" fill="#C9CEDD" stroke="#F1F3F7"/>
<rect x="-0.432984" y="0.249984" width="6.28038" height="6.28038" rx="3.14019" transform="matrix(3.7675e-05 1 -0.866007 -0.500033 244.737 217.067)" fill="#C9CEDD" stroke="#F1F3F7"/>
<rect x="-0.432984" y="0.249984" width="6.28038" height="6.28038" rx="3.14019" transform="matrix(3.7675e-05 1 -0.866007 -0.500033 219.51 202.505)" fill="#5881FF" stroke="#F1F3F7"/>
<rect x="-0.432984" y="0.249984" width="6.28038" height="6.28038" rx="3.14019" transform="matrix(3.7675e-05 1 -0.866007 -0.500033 181.69 180.666)" fill="#C9CEDD" stroke="#F1F3F7"/>
<rect x="-0.432984" y="0.249984" width="6.28038" height="6.28038" rx="3.14019" transform="matrix(3.7675e-05 1 -0.866007 -0.500033 232.123 209.786)" fill="#C9CEDD" stroke="#F1F3F7"/>
<rect x="-0.432984" y="0.249984" width="6.28038" height="6.28038" rx="3.14019" transform="matrix(3.7675e-05 1 -0.866007 -0.500033 206.909 195.228)" fill="#C9CEDD" stroke="#F1F3F7"/>
<path d="M167.573 76.9297C155.517 70.0211 155.517 58.82 167.573 51.9114L248.679 5.43537C260.735 -1.47326 280.282 -1.47325 292.338 5.43538L373.443 51.9114C385.499 58.82 385.499 70.0211 373.443 76.9297L292.338 123.406C280.282 130.314 260.735 130.314 248.679 123.406L167.573 76.9297Z" fill="url(#paint5_linear)"/>
<path d="M291.513 195.975L306.112 187.546L306.112 193.342L313.094 189.311L313.094 183.515L316.711 181.427L316.711 174.779L313.095 176.867L313.096 154.402L303.9 159.711L291.513 189.396L291.513 195.975ZM306.26 180.813L298.776 185.134L298.776 184.862L306.025 167.416L306.261 167.279L306.26 180.813ZM331.382 179.604C339.294 175.053 344.151 165.499 344.167 153.968C344.182 142.505 339.297 138.798 331.384 143.366C323.472 147.934 318.63 157.241 318.614 168.721C318.584 180.227 323.469 184.173 331.382 179.604ZM331.382 172.701C328.238 174.516 326.098 172.104 326.128 164.383C326.143 156.823 328.254 152.025 331.384 150.218C334.528 148.403 336.639 150.763 336.653 158.306C336.667 166.002 334.541 170.877 331.382 172.701ZM346.319 164.333L360.918 155.904L360.918 161.699L367.9 157.668L367.901 151.873L371.517 149.785L371.518 143.137L367.901 145.225L367.903 122.759L358.706 128.069L346.319 157.753L346.319 164.333ZM361.067 149.171L353.582 153.492L353.582 153.219L360.831 135.773L361.068 135.637L361.067 149.171Z" fill="url(#paint6_linear)"/>
<defs>
<filter id="filter0_f" x="37.1992" y="133.073" width="465.356" height="294.245" filterUnits="userSpaceOnUse" color-interpolation-filters="sRGB">
<feFlood flood-opacity="0" result="BackgroundImageFix"/>
<feBlend mode="normal" in="SourceGraphic" in2="BackgroundImageFix" result="shape"/>
<feGaussianBlur stdDeviation="16" result="effect1_foregroundBlur"/>
</filter>
<filter id="filter1_i" x="10.1465" y="83.376" width="520.707" height="302.604" filterUnits="userSpaceOnUse" color-interpolation-filters="sRGB">
<feFlood flood-opacity="0" result="BackgroundImageFix"/>
<feBlend mode="normal" in="SourceGraphic" in2="BackgroundImageFix" result="shape"/>
<feColorMatrix in="SourceAlpha" type="matrix" values="0 0 0 0 0 0 0 0 0 0 0 0 0 0 0 0 0 0 127 0" result="hardAlpha"/>
<feOffset dy="-2"/>
<feGaussianBlur stdDeviation="2"/>
<feComposite in2="hardAlpha" operator="arithmetic" k2="-1" k3="1"/>
<feColorMatrix type="matrix" values="0 0 0 0 0.690764 0 0 0 0 0.71559 0 0 0 0 0.816667 0 0 0 1 0"/>
<feBlend mode="normal" in2="shape" result="effect1_innerShadow"/>
</filter>
<filter id="filter2_f" x="137.852" y="156.979" width="264.049" height="178.493" filterUnits="userSpaceOnUse" color-interpolation-filters="sRGB">
<feFlood flood-opacity="0" result="BackgroundImageFix"/>
<feBlend mode="normal" in="SourceGraphic" in2="BackgroundImageFix" result="shape"/>
<feGaussianBlur stdDeviation="16" result="effect1_foregroundBlur"/>
</filter>
<linearGradient id="paint0_linear" x1="69.1992" y1="280.196" x2="470.555" y2="280.196" gradientUnits="userSpaceOnUse">
<stop stop-color="#6664DF"/>
<stop offset="1" stop-color="#4FA0FF"/>
</linearGradient>
<linearGradient id="paint1_linear" x1="169.852" y1="246.226" x2="369.9" y2="246.226" gradientUnits="userSpaceOnUse">
<stop stop-color="#6664DF"/>
<stop offset="1" stop-color="#4FA0FF"/>
</linearGradient>
<linearGradient id="paint2_linear" x1="158.531" y1="188.778" x2="382.237" y2="191.073" gradientUnits="userSpaceOnUse">
<stop offset="0.416667" stop-color="#F0F2F6"/>
<stop offset="0.635417" stop-color="#D7DCE7"/>
</linearGradient>
<linearGradient id="paint3_linear" x1="158.531" y1="192.753" x2="382.485" y2="192.753" gradientUnits="userSpaceOnUse">
<stop stop-color="#6664DF"/>
<stop offset="1" stop-color="#4FA0FF"/>
</linearGradient>
<linearGradient id="paint4_linear" x1="158.531" y1="211.777" x2="382.15" y2="216.75" gradientUnits="userSpaceOnUse">
<stop offset="0.416667" stop-color="#F0F2F6"/>
<stop offset="0.635417" stop-color="#D7DCE7"/>
</linearGradient>
<linearGradient id="paint5_linear" x1="271.148" y1="0.253906" x2="271.148" y2="128.587" gradientUnits="userSpaceOnUse">
<stop stop-color="#DEE1E8"/>
<stop offset="1" stop-color="white"/>
</linearGradient>
<linearGradient id="paint6_linear" x1="266.002" y1="199.1" x2="396.766" y2="199.11" gradientUnits="userSpaceOnUse">
<stop stop-color="#2061DF"/>
<stop offset="1" stop-color="#209ADF"/>
</linearGradient>
</defs>
</svg>
